<svg version="1.1" id="Layer_1" xmlns="http://www.w3.org/2000/svg" xmlns:xlink="http://www.w3.org/1999/xlink" x="0px" y="0px"
	 width="100%" viewBox="0 0 500 500" enable-background="new 0 0 500 500" xml:space="preserve">
<path fill="#000000" opacity="1.000000" stroke="none" 
	d="
M235.000000,501.000000 
	C156.666687,501.000000 78.833374,501.000000 1.000042,501.000000 
	C1.000028,334.333405 1.000028,167.666779 1.000014,1.000131 
	C167.666565,1.000087 334.333130,1.000087 500.999756,1.000044 
	C500.999847,167.666519 500.999847,334.333038 500.999939,500.999786 
	C412.500000,501.000000 324.000000,501.000000 235.000000,501.000000 
M269.790558,310.649872 
	C274.196503,309.711060 278.602478,308.772247 283.792236,307.977234 
	C287.526428,306.607056 291.260590,305.236877 295.706421,303.803528 
	C301.155334,300.257477 306.604218,296.711426 312.678436,292.898438 
	C315.467926,289.634949 318.257416,286.371460 321.674896,282.825470 
	C325.773376,275.902313 330.980499,269.390564 333.734467,261.968536 
	C339.108307,247.485886 339.420013,232.367584 334.969391,217.430313 
	C332.151276,207.972076 328.197937,199.025375 320.777252,191.251495 
	C317.882080,188.100128 314.986877,184.948746 311.776764,181.181229 
	C305.864166,177.748825 299.951569,174.316406 293.668182,170.238358 
	C290.446228,169.209274 287.224274,168.180206 283.181091,167.011963 
	C277.790405,166.395462 272.399750,165.778961 266.084381,165.012329 
	C260.064545,165.392105 254.044708,165.771881 247.277451,166.285660 
	C241.859314,168.237946 236.441177,170.190231 230.343979,172.251572 
	C227.169556,174.484222 223.995132,176.716873 220.231827,179.265076 
	C217.438705,181.828522 214.645584,184.391968 211.259567,187.256104 
	C207.167206,192.953110 202.449921,198.307785 199.104813,204.414139 
	C190.581680,219.972763 190.303284,236.943314 193.182541,253.828537 
	C195.448166,267.115204 201.808975,278.726898 212.154633,288.654175 
	C215.043182,291.119568 217.931732,293.584961 221.110886,296.691620 
	C224.379959,298.503998 227.649033,300.316406 231.278061,302.747620 
	C237.790726,304.852173 244.303391,306.956726 251.274841,309.791138 
	C257.182739,310.141724 263.090607,310.492310 269.790558,310.649872 
z"/>
<path fill="#1A4EB4" opacity="1.000000" stroke="none" 
	d="
M211.862488,288.043274 
	C201.808975,278.726898 195.448166,267.115204 193.182541,253.828537 
	C190.303284,236.943314 190.581680,219.972763 199.104813,204.414139 
	C202.449921,198.307785 207.167206,192.953110 211.921295,187.267639 
	C213.053665,188.612701 213.931747,189.945206 213.935135,191.279922 
	C214.013153,222.024628 214.026245,252.769684 213.905853,283.514099 
	C213.899918,285.026489 212.573853,286.533661 211.862488,288.043274 
z"/>
<path fill="#B96AE1" opacity="1.000000" stroke="none" 
	d="
M321.038879,191.882538 
	C328.197937,199.025375 332.151276,207.972076 334.969391,217.430313 
	C339.420013,232.367584 339.108307,247.485886 333.734467,261.968536 
	C330.980499,269.390564 325.773376,275.902313 321.196655,282.575500 
	C320.479095,280.200378 320.052124,278.077087 320.031830,275.949860 
	C319.925720,264.837524 319.922913,253.724182 320.069244,242.398651 
	C320.891388,241.641281 321.528473,241.096466 322.401917,240.349503 
	C321.275330,240.109589 320.634460,239.973114 319.995087,239.378220 
	C319.997925,225.506790 319.951294,212.093460 320.047150,198.681122 
	C320.063324,196.412674 320.692780,194.148621 321.038879,191.882538 
z"/>
<path fill="#9664D6" opacity="1.000000" stroke="none" 
	d="
M294.038971,170.884003 
	C299.951569,174.316406 305.864166,177.748825 311.829773,181.907928 
	C311.584503,185.093674 311.040863,187.551376 311.027771,190.011932 
	C310.942810,205.964478 310.973389,221.917618 310.555908,237.909882 
	C304.829010,238.463257 299.512360,238.977325 294.024902,239.075104 
	C293.571136,236.875824 293.047791,235.093567 293.042114,233.309662 
	C292.982147,214.435944 292.974609,195.561813 293.049561,176.688202 
	C293.057251,174.752182 293.694061,172.818680 294.038971,170.884003 
z"/>
<path fill="#2751B7" opacity="1.000000" stroke="none" 
	d="
M212.008575,288.348724 
	C212.573853,286.533661 213.899918,285.026489 213.905853,283.514099 
	C214.026245,252.769684 214.013153,222.024628 213.935135,191.279922 
	C213.931747,189.945206 213.053665,188.612701 212.217743,187.117279 
	C214.645584,184.391968 217.438705,181.828522 220.891663,179.267761 
	C222.035522,181.724991 222.387329,184.215698 223.046173,186.622360 
	C223.556259,188.485718 224.450531,190.243896 225.159882,192.454620 
	C222.931168,199.559830 223.361130,206.256866 224.822189,213.088608 
	C222.350891,215.471008 222.193588,217.476761 225.243225,219.405609 
	C225.262085,220.126144 225.235001,220.537781 224.916565,221.214966 
	C224.084457,223.849045 223.088806,226.214844 223.074402,228.586594 
	C222.950073,249.069962 223.062988,269.554871 222.906937,290.037781 
	C222.891632,292.047150 221.547562,294.046417 220.820251,296.050354 
	C217.931732,293.584961 215.043182,291.119568 212.008575,288.348724 
z"/>
<path fill="#3554BA" opacity="1.000000" stroke="none" 
	d="
M220.965576,296.370972 
	C221.547562,294.046417 222.891632,292.047150 222.906937,290.037781 
	C223.062988,269.554871 222.950073,249.069962 223.074402,228.586594 
	C223.088806,226.214844 224.084457,223.849045 225.105301,221.532257 
	C226.694687,229.411514 230.538101,235.670609 236.281464,241.323090 
	C233.893158,240.238037 231.504852,239.152985 229.116531,238.067917 
	C228.804977,238.401062 228.493423,238.734192 228.181870,239.067337 
	C231.049683,242.273941 233.917496,245.480545 236.472672,248.928101 
	C235.780151,250.124084 235.400269,251.079132 234.673431,252.043457 
	C233.689941,252.084625 233.053421,252.116531 231.069199,252.216019 
	C235.278381,255.647354 238.628616,258.378479 241.980743,261.571106 
	C241.981705,268.658508 241.980774,275.284393 241.530731,282.004608 
	C237.388443,282.098938 233.695267,282.098938 229.230225,282.098938 
	C230.610107,283.711700 231.407715,284.643951 232.168320,286.067169 
	C231.726913,291.748383 231.322510,296.938568 230.918106,302.128784 
	C227.649033,300.316406 224.379959,298.503998 220.965576,296.370972 
z"/>
<path fill="#5659C5" opacity="1.000000" stroke="none" 
	d="
M248.024872,166.151642 
	C254.044708,165.771881 260.064545,165.392105 266.542908,165.538544 
	C267.609711,170.696533 268.217957,175.328323 268.732178,180.295105 
	C262.416565,192.179672 259.443542,204.196518 264.434204,217.358841 
	C263.761414,217.444183 263.088654,217.529541 262.415863,217.614899 
	C260.873108,213.662201 259.330353,209.709518 257.734344,205.620392 
	C253.261642,214.866959 254.710297,223.285721 261.394958,229.890350 
	C260.368439,231.877670 259.653595,233.594833 258.588806,235.227737 
	C255.119080,232.880417 251.999283,230.617355 248.904968,227.864014 
	C248.953232,208.744431 249.002563,190.115082 248.956116,171.485947 
	C248.951675,169.707092 248.349533,167.929703 248.024872,166.151642 
z"/>
<path fill="#4B57C1" opacity="1.000000" stroke="none" 
	d="
M247.651154,166.218658 
	C248.349533,167.929703 248.951675,169.707092 248.956116,171.485947 
	C249.002563,190.115082 248.953232,208.744431 248.600922,227.701355 
	C238.674393,220.582321 232.383163,211.080978 230.563721,198.817947 
	C230.937531,189.800735 230.980286,180.971634 231.023041,172.142517 
	C236.441177,170.190231 241.859314,168.237946 247.651154,166.218658 
z"/>
<path fill="#7760CD" opacity="1.000000" stroke="none" 
	d="
M268.826202,179.960114 
	C268.217957,175.328323 267.609711,170.696533 267.005249,165.613602 
	C272.399750,165.778961 277.790405,166.395462 283.590210,167.540497 
	C283.998291,184.127869 284.056519,200.187225 283.918304,216.244888 
	C283.901794,218.165268 282.816711,220.076447 281.978638,221.751297 
	C272.062958,210.992554 267.507751,198.859009 269.781982,184.454330 
	C270.005035,183.041779 269.170074,181.462173 268.826202,179.960114 
z"/>
<path fill="#9664D6" opacity="1.000000" stroke="none" 
	d="
M312.053162,293.165375 
	C306.604218,296.711426 301.155334,300.257477 295.261902,303.435516 
	C294.544678,297.455383 294.395813,291.832916 293.927002,286.237213 
	C293.778015,284.458923 292.777344,282.751984 292.224335,280.666870 
	C294.194855,275.935699 295.651184,271.270844 298.124847,267.228516 
	C302.026520,260.852600 306.611572,254.894882 310.923096,249.243607 
	C311.310303,264.206512 311.681732,278.685944 312.053162,293.165375 
z"/>
<path fill="#8762D2" opacity="1.000000" stroke="none" 
	d="
M282.226929,221.991898 
	C282.816711,220.076447 283.901794,218.165268 283.918304,216.244888 
	C284.056519,200.187225 283.998291,184.127869 284.000793,167.610077 
	C287.224274,168.180206 290.446228,169.209274 293.853577,170.561188 
	C293.694061,172.818680 293.057251,174.752182 293.049561,176.688202 
	C292.974609,195.561813 292.982147,214.435944 293.042114,233.309662 
	C293.047791,235.093567 293.571136,236.875824 293.813049,239.328674 
	C289.610504,245.668610 284.258789,244.151840 278.906921,242.047134 
	C278.965851,241.072327 278.996765,240.515442 279.441559,239.975143 
	C280.834381,240.128372 281.815948,240.248398 282.791809,240.404343 
	C289.112122,241.414337 290.460571,240.022308 288.186737,233.839783 
	C286.670624,229.717468 284.245331,225.929504 282.226929,221.991898 
z"/>
<path fill="#AD68DD" opacity="1.000000" stroke="none" 
	d="
M310.966125,237.870575 
	C310.973389,221.917618 310.942810,205.964478 311.027771,190.011932 
	C311.040863,187.551376 311.584503,185.093674 311.987244,182.216003 
	C314.986877,184.948746 317.882080,188.100128 320.908081,191.567017 
	C320.692780,194.148621 320.063324,196.412674 320.047150,198.681122 
	C319.951294,212.093460 319.997925,225.506790 319.611084,239.398712 
	C316.472382,239.208603 313.719269,238.539581 310.966125,237.870575 
z"/>
<path fill="#AD68DD" opacity="1.000000" stroke="none" 
	d="
M312.365784,293.031921 
	C311.681732,278.685944 311.310303,264.206512 311.105286,248.969086 
	C314.142517,246.344452 317.013367,244.477814 319.884216,242.611176 
	C319.922913,253.724182 319.925720,264.837524 320.031830,275.949860 
	C320.052124,278.077087 320.479095,280.200378 320.882690,282.716736 
	C318.257416,286.371460 315.467926,289.634949 312.365784,293.031921 
z"/>
<path fill="#4B57C1" opacity="1.000000" stroke="none" 
	d="
M231.098083,302.438202 
	C231.322510,296.938568 231.726913,291.748383 232.521942,286.191467 
	C238.759262,289.876434 245.506424,288.744904 251.990051,289.582520 
	C251.986832,292.999054 251.982132,295.971924 251.940002,299.270020 
	C252.262238,299.831085 252.621918,300.066925 253.069550,300.660156 
	C254.123520,304.207214 254.938828,307.352966 250.816055,309.061279 
	C244.303391,306.956726 237.790726,304.852173 231.098083,302.438202 
M249.912613,300.359192 
	C249.912613,300.359192 249.990768,300.632172 249.990768,300.632172 
	C249.990768,300.632172 250.078705,300.361755 249.912613,300.359192 
z"/>
<path fill="#8762D2" opacity="1.000000" stroke="none" 
	d="
M292.166382,281.012390 
	C292.777344,282.751984 293.778015,284.458923 293.927002,286.237213 
	C294.395813,291.832916 294.544678,297.455383 294.906097,303.467102 
	C291.260590,305.236877 287.526428,306.607056 283.398438,307.450317 
	C282.598572,302.255096 282.192535,297.586792 281.983185,292.639679 
	C285.508728,288.578033 288.837555,284.795197 292.166382,281.012390 
z"/>
<path fill="#7760CD" opacity="1.000000" stroke="none" 
	d="
M281.786499,292.918518 
	C282.192535,297.586792 282.598572,302.255096 283.006531,307.378418 
	C278.602478,308.772247 274.196503,309.711060 269.390869,310.303162 
	C268.634033,306.201019 268.276917,302.445618 268.212097,298.490051 
	C272.931732,296.499451 277.359100,294.708984 281.786499,292.918518 
z"/>
<path fill="#5659C5" opacity="1.000000" stroke="none" 
	d="
M267.919830,298.690216 
	C268.276917,302.445618 268.634033,306.201019 268.994812,310.399658 
	C263.090607,310.492310 257.182739,310.141724 251.045441,309.426208 
	C254.938828,307.352966 254.123520,304.207214 253.508026,300.561890 
	C258.545654,299.634216 263.232727,299.162201 267.919830,298.690216 
z"/>
<path fill="#3554BA" opacity="1.000000" stroke="none" 
	d="
M230.683502,172.197052 
	C230.980286,180.971634 230.937531,189.800735 230.446793,198.406250 
	C229.466293,194.346390 228.933777,190.510147 228.292435,185.889908 
	C227.003815,188.434937 226.088913,190.241882 225.174011,192.048828 
	C224.450531,190.243896 223.556259,188.485718 223.046173,186.622360 
	C222.387329,184.215698 222.035522,181.724991 221.186111,179.109985 
	C223.995132,176.716873 227.169556,174.484222 230.683502,172.197052 
z"/>
<path fill="#FBDB5C" opacity="1.000000" stroke="none" 
	d="
M225.159882,192.454620 
	C226.088913,190.241882 227.003815,188.434937 228.292435,185.889908 
	C228.933777,190.510147 229.466293,194.346390 230.115738,198.594330 
	C232.383163,211.080978 238.674393,220.582321 248.575439,228.191650 
	C251.999283,230.617355 255.119080,232.880417 258.812531,235.484039 
	C265.883759,238.038086 272.381348,240.251572 278.878906,242.465057 
	C284.258789,244.151840 289.610504,245.668610 293.983826,239.744949 
	C299.512360,238.977325 304.829010,238.463257 310.555908,237.909882 
	C313.719269,238.539581 316.472382,239.208603 319.609558,239.857132 
	C320.634460,239.973114 321.275330,240.109589 322.401917,240.349503 
	C321.528473,241.096466 320.891388,241.641281 320.069275,242.398651 
	C317.013367,244.477814 314.142517,246.344452 311.089539,248.485626 
	C306.611572,254.894882 302.026520,260.852600 298.124847,267.228516 
	C295.651184,271.270844 294.194855,275.935699 292.224335,280.666870 
	C288.837555,284.795197 285.508728,288.578033 281.983185,292.639679 
	C277.359100,294.708984 272.931732,296.499451 268.212097,298.490051 
	C263.232727,299.162201 258.545654,299.634216 253.420074,300.204468 
	C252.621918,300.066925 252.262238,299.831085 252.285492,299.232544 
	C256.463257,295.614532 260.258057,292.359253 264.405457,289.064026 
	C267.578857,286.731415 270.399689,284.438782 273.220490,282.146149 
	C272.927917,281.720245 272.635345,281.294373 272.342773,280.868469 
	C269.531403,282.393829 266.720062,283.919189 263.528503,285.545288 
	C259.428375,286.810364 255.708466,287.974640 251.988541,289.138916 
	C245.506424,288.744904 238.759262,289.876434 232.558960,285.700500 
	C231.407715,284.643951 230.610107,283.711700 229.230225,282.098938 
	C233.695267,282.098938 237.388443,282.098938 241.950165,282.066101 
	C247.907822,280.386932 252.996902,278.740570 258.437927,277.063660 
	C261.614410,274.562653 264.516357,272.174377 267.245361,269.602600 
	C271.361694,265.723511 275.357269,261.716339 279.404175,257.763580 
	C276.075867,258.919983 272.501678,260.468048 269.311798,262.593048 
	C265.379608,265.212494 261.767365,268.312195 257.590210,271.227112 
	C251.327438,271.039001 249.278214,270.096771 246.510330,266.696075 
	C249.561508,265.885071 252.901840,264.997223 256.242157,264.109344 
	C256.109070,263.698242 255.975983,263.287170 255.842896,262.876068 
	C251.221558,262.287262 246.600204,261.698425 241.978867,261.109619 
	C238.628616,258.378479 235.278381,255.647354 231.069199,252.216019 
	C233.053421,252.116531 233.689941,252.084625 234.962418,252.287231 
	C239.898666,253.174515 244.198944,253.827271 248.499237,254.480026 
	C248.495346,254.175964 248.491455,253.871887 248.487564,253.567825 
	C244.586807,251.940933 240.686066,250.314041 236.785309,248.687149 
	C233.917496,245.480545 231.049683,242.273941 228.181870,239.067337 
	C228.493423,238.734192 228.804977,238.401062 229.116531,238.067917 
	C231.504852,239.152985 233.893158,240.238037 236.281464,241.323090 
	C230.538101,235.670609 226.694687,229.411514 225.396667,221.266724 
	C225.235001,220.537781 225.262085,220.126144 225.516678,219.620224 
	C227.053421,220.620255 228.362671,221.714539 229.671906,222.808838 
	C229.914261,222.618576 230.156631,222.428314 230.398987,222.238052 
	C228.653900,219.142929 226.908813,216.047806 225.163727,212.952682 
	C223.361130,206.256866 222.931168,199.559830 225.159882,192.454620 
M231.092682,222.779068 
	C230.746414,222.812897 230.400146,222.846710 230.053879,222.880539 
	C230.319305,223.301437 230.584732,223.722336 231.066772,224.657654 
	C231.228653,224.234879 231.390533,223.812103 231.092682,222.779068 
z"/>
<path fill="#3554BA" opacity="1.000000" stroke="none" 
	d="
M224.822189,213.088608 
	C226.908813,216.047806 228.653900,219.142929 230.398987,222.238052 
	C230.156631,222.428314 229.914261,222.618576 229.671906,222.808838 
	C228.362671,221.714539 227.053421,220.620255 225.470734,219.311340 
	C222.193588,217.476761 222.350891,215.471008 224.822189,213.088608 
z"/>
<path fill="#5659C5" opacity="1.000000" stroke="none" 
	d="
M241.980743,261.571106 
	C246.600204,261.698425 251.221558,262.287262 255.842896,262.876068 
	C255.975983,263.287170 256.109070,263.698242 256.242157,264.109344 
	C252.901840,264.997223 249.561508,265.885071 246.510330,266.696075 
	C249.278214,270.096771 251.327438,271.039001 257.590210,271.647980 
	C258.039917,273.728821 258.062958,275.411530 258.085999,277.094238 
	C252.996902,278.740570 247.907822,280.386932 242.399292,281.971771 
	C241.980774,275.284393 241.981705,268.658508 241.980743,261.571106 
z"/>
<path fill="#5659C5" opacity="1.000000" stroke="none" 
	d="
M236.472672,248.928101 
	C240.686066,250.314041 244.586807,251.940933 248.487564,253.567825 
	C248.491455,253.871887 248.495346,254.175964 248.499237,254.480026 
	C244.198944,253.827271 239.898666,253.174515 235.309387,252.277954 
	C235.400269,251.079132 235.780151,250.124084 236.472672,248.928101 
z"/>
<path fill="#5CDDE5" opacity="1.000000" stroke="none" 
	d="
M281.978638,221.751297 
	C284.245331,225.929504 286.670624,229.717468 288.186737,233.839783 
	C290.460571,240.022308 289.112122,241.414337 282.791809,240.404343 
	C281.815948,240.248398 280.834381,240.128372 279.168762,239.759552 
	C272.890289,236.224976 267.298431,232.922592 261.706604,229.620193 
	C254.710297,223.285721 253.261642,214.866959 257.734344,205.620392 
	C259.330353,209.709518 260.873108,213.662201 262.415863,217.614899 
	C263.088654,217.529541 263.761414,217.444183 264.434204,217.358841 
	C259.443542,204.196518 262.416565,192.179672 268.732178,180.295105 
	C269.170074,181.462173 270.005035,183.041779 269.781982,184.454330 
	C267.507751,198.859009 272.062958,210.992554 281.978638,221.751297 
z"/>
<path fill="#7760CD" opacity="1.000000" stroke="none" 
	d="
M261.394958,229.890350 
	C267.298431,232.922592 272.890289,236.224976 278.754883,239.742950 
	C278.996765,240.515442 278.965851,241.072327 278.906921,242.047134 
	C272.381348,240.251572 265.883759,238.038086 259.162476,235.568298 
	C259.653595,233.594833 260.368439,231.877670 261.394958,229.890350 
z"/>
<path fill="#5659C5" opacity="1.000000" stroke="none" 
	d="
M251.990051,289.582520 
	C255.708466,287.974640 259.428375,286.810364 263.546936,286.002991 
	C263.981354,287.274597 264.017090,288.189301 264.052856,289.103973 
	C260.258057,292.359253 256.463257,295.614532 252.322937,298.907318 
	C251.982132,295.971924 251.986832,292.999054 251.990051,289.582520 
z"/>
<path fill="#5659C5" opacity="1.000000" stroke="none" 
	d="
M249.995667,300.360474 
	C250.078705,300.361755 249.990768,300.632172 249.990768,300.632172 
	C249.990768,300.632172 249.912613,300.359192 249.995667,300.360474 
z"/>
<path fill="#7760CD" opacity="1.000000" stroke="none" 
	d="
M258.437927,277.063660 
	C258.062958,275.411530 258.039917,273.728821 258.016876,271.625244 
	C261.767365,268.312195 265.379608,265.212494 269.311798,262.593048 
	C272.501678,260.468048 276.075867,258.919983 279.404175,257.763580 
	C275.357269,261.716339 271.361694,265.723511 267.245361,269.602600 
	C264.516357,272.174377 261.614410,274.562653 258.437927,277.063660 
z"/>
<path fill="#7760CD" opacity="1.000000" stroke="none" 
	d="
M264.405457,289.064026 
	C264.017090,288.189301 263.981354,287.274597 263.927124,285.902222 
	C266.720062,283.919189 269.531403,282.393829 272.342773,280.868469 
	C272.635345,281.294373 272.927917,281.720245 273.220490,282.146149 
	C270.399689,284.438782 267.578857,286.731415 264.405457,289.064026 
z"/>
<path fill="#3554BA" opacity="1.000000" stroke="none" 
	d="
M231.552429,223.389343 
	C231.390533,223.812103 231.228653,224.234879 231.135727,224.213547 
	C231.320602,223.642746 231.436508,223.516037 231.552429,223.389343 
z"/>
<path fill="#3554BA" opacity="1.000000" stroke="none" 
	d="
M231.027420,223.956329 
	C230.584732,223.722336 230.319305,223.301437 230.053879,222.880539 
	C230.400146,222.846710 230.746414,222.812897 231.322556,223.084198 
	C231.436508,223.516037 231.320602,223.642746 231.027420,223.956329 
z"/>
</svg>